<?xml version="1.0" encoding="UTF-8" standalone="no"?>
<!-- Created with Inkscape (http://www.inkscape.org/) -->

<svg
   xmlns:dc="http://purl.org/dc/elements/1.1/"
   xmlns:cc="http://creativecommons.org/ns#"
   xmlns:rdf="http://www.w3.org/1999/02/22-rdf-syntax-ns#"
   xmlns:svg="http://www.w3.org/2000/svg"
   xmlns="http://www.w3.org/2000/svg"
   xmlns:sodipodi="http://sodipodi.sourceforge.net/DTD/sodipodi-0.dtd"
   xmlns:inkscape="http://www.inkscape.org/namespaces/inkscape"
   width="400"
   height="200"
   id="svg2"
   version="1.1"
   inkscape:version="0.48.5 r10040"
   sodipodi:docname="New document 1">
  <defs
     id="defs4" />
  <sodipodi:namedview
     id="base"
     pagecolor="#ffffff"
     bordercolor="#666666"
     borderopacity="1.0"
     inkscape:pageopacity="0.0"
     inkscape:pageshadow="2"
     inkscape:zoom="1"
     inkscape:cx="31.88172"
     inkscape:cy="80"
     inkscape:document-units="px"
     inkscape:current-layer="layer1"
     showgrid="true"
     inkscape:snap-midpoints="true"
     inkscape:snap-grids="false"
     inkscape:snap-global="false"
     inkscape:snap-nodes="true"
     inkscape:object-nodes="true"
     inkscape:object-paths="true"
     inkscape:window-width="1366"
     inkscape:window-height="705"
     inkscape:window-x="-8"
     inkscape:window-y="-8"
     inkscape:window-maximized="1">
    <inkscape:grid
       type="xygrid"
       id="grid2998"
       empspacing="5"
       visible="true"
       enabled="true"
       snapvisiblegridlinesonly="true" />
  </sodipodi:namedview>
  <metadata
     id="metadata7">
    <rdf:RDF>
      <cc:Work
         rdf:about="">
        <dc:format>image/svg+xml</dc:format>
        <dc:type
           rdf:resource="http://purl.org/dc/dcmitype/StillImage" />
        <dc:title></dc:title>
      </cc:Work>
    </rdf:RDF>
  </metadata>
  <g
     inkscape:label="Layer 1"
     inkscape:groupmode="layer"
     id="layer1"
     transform="translate(0,-852.36218)">
    <path
       inkscape:connector-curvature="0"
       id="path2990"
       style="font-size:72px;font-style:normal;font-variant:normal;font-weight:normal;font-stretch:normal;line-height:125%;letter-spacing:0px;word-spacing:0px;fill:#359ab2;fill-opacity:1;stroke:none;font-family:Segoe UI;-inkscape-font-specification:Segoe UI"
       d="m 46.58789,980.77234 0,-6.96094 c 0.79687,0.70314 1.75194,1.33595 2.86523,1.89844 1.11327,0.56251 2.28515,1.03712 3.51563,1.42383 1.23045,0.38672 2.46678,0.68555 3.70898,0.89648 1.24217,0.21094 2.39061,0.31641 3.44531,0.31641 3.63279,0 6.34568,-0.67382 8.13867,-2.02149 1.79295,-1.34764 2.68943,-3.2871 2.68946,-5.81835 -3e-5,-1.35937 -0.29886,-2.54296 -0.89649,-3.55079 -0.59768,-1.00779 -1.42385,-1.92771 -2.47851,-2.75976 -1.05471,-0.83201 -2.30276,-1.62889 -3.74414,-2.39063 -1.44143,-0.76169 -2.99416,-1.56443 -4.65821,-2.4082 -1.75782,-0.8906 -3.39845,-1.79294 -4.92187,-2.70703 -1.52345,-0.91404 -2.84767,-1.92185 -3.97266,-3.02344 -1.125,-1.10153 -2.00977,-2.34958 -2.65429,-3.74414 -0.64454,-1.3945 -0.96681,-3.02926 -0.9668,-4.9043 -1e-5,-2.29683 0.5039,-4.29488 1.51172,-5.99414 1.0078,-1.69917 2.33202,-3.09956 3.97265,-4.20117 1.64062,-1.10151 3.50976,-1.92182 5.60743,-2.46094 2.09763,-0.53901 4.2363,-0.80854 6.41601,-0.80859 4.96872,5e-5 8.58981,0.59771 10.86328,1.79297 l 0,6.64453 c -2.97659,-2.06245 -6.7969,-3.0937 -11.46094,-3.09375 -1.28908,5e-5 -2.57814,0.13481 -3.86718,0.4043 -1.28908,0.26957 -2.43752,0.70903 -3.44532,1.31836 -1.00782,0.60941 -1.82813,1.39457 -2.46093,2.35547 -0.63283,0.96097 -0.94923,2.13285 -0.94922,3.51562 -1e-5,1.2891 0.24022,2.40238 0.7207,3.33984 0.48046,0.93754 1.18944,1.79301 2.12695,2.56641 0.93749,0.77347 2.08007,1.52347 3.42774,2.25 1.34764,0.72659 2.90037,1.52347 4.6582,2.39063 1.80467,0.89065 3.5156,1.82815 5.13281,2.8125 1.61716,0.98439 3.03513,2.07424 4.25391,3.26953 1.21872,1.19533 2.18552,2.51955 2.90039,3.97265 0.71481,1.45314 1.07223,3.1172 1.07227,4.99219 -4e-5,2.48439 -0.48636,4.5879 -1.45899,6.31055 -0.97269,1.72266 -2.28518,3.12305 -3.9375,4.20117 -1.65237,1.07813 -3.55666,1.85742 -5.71289,2.33789 -2.15627,0.48047 -4.4297,0.7207 -6.82031,0.7207 -0.79689,0 -1.78127,-0.0644 -2.95313,-0.19336 -1.17188,-0.1289 -2.36719,-0.3164 -3.58593,-0.5625 -1.21876,-0.24609 -2.37306,-0.55078 -3.46289,-0.91406 -1.08985,-0.36328 -1.9629,-0.76758 -2.61914,-1.21289 z" />
    <path
       inkscape:connector-curvature="0"
       id="path2992"
       style="font-size:72px;font-style:normal;font-variant:normal;font-weight:normal;font-stretch:normal;line-height:125%;letter-spacing:0px;word-spacing:0px;fill:#359ab2;fill-opacity:1;stroke:none;font-family:Segoe UI;-inkscape-font-specification:Segoe UI"
       d="m 82.83789,980.77234 0,-6.96094 c 0.79687,0.70314 1.75194,1.33595 2.86523,1.89844 1.11327,0.56251 2.28515,1.03712 3.51563,1.42383 1.23045,0.38672 2.46678,0.68555 3.70898,0.89648 1.24217,0.21094 2.39061,0.31641 3.44531,0.31641 3.63279,0 6.34568,-0.67382 8.13867,-2.02149 1.79295,-1.34764 2.68943,-3.2871 2.68946,-5.81835 -3e-5,-1.35937 -0.29886,-2.54296 -0.89649,-3.55079 -0.59768,-1.00779 -1.42385,-1.92771 -2.47851,-2.75976 -1.05471,-0.83201 -2.30276,-1.62889 -3.74414,-2.39063 -1.44143,-0.76169 -2.99416,-1.56443 -4.65821,-2.4082 -1.75782,-0.8906 -3.39845,-1.79294 -4.92187,-2.70703 -1.52345,-0.91404 -2.84767,-1.92185 -3.97266,-3.02344 -1.125,-1.10153 -2.00977,-2.34958 -2.65429,-3.74414 -0.64454,-1.3945 -0.96681,-3.02926 -0.9668,-4.9043 -10e-6,-2.29683 0.5039,-4.29488 1.51172,-5.99414 1.0078,-1.69917 2.33202,-3.09956 3.97265,-4.20117 1.64062,-1.10151 3.50976,-1.92182 5.60743,-2.46094 2.09763,-0.53901 4.2363,-0.80854 6.41601,-0.80859 4.96872,5e-5 8.58981,0.59771 10.86328,1.79297 l 0,6.64453 c -2.97659,-2.06245 -6.7969,-3.0937 -11.46094,-3.09375 -1.28908,5e-5 -2.57814,0.13481 -3.86718,0.4043 -1.28908,0.26957 -2.43752,0.70903 -3.44532,1.31836 -1.00782,0.60941 -1.82813,1.39457 -2.46093,2.35547 -0.63283,0.96097 -0.94923,2.13285 -0.94922,3.51562 -10e-6,1.2891 0.24022,2.40238 0.7207,3.33984 0.48046,0.93754 1.18944,1.79301 2.12695,2.56641 0.93749,0.77347 2.08007,1.52347 3.42774,2.25 1.34764,0.72659 2.90037,1.52347 4.6582,2.39063 1.80467,0.89065 3.5156,1.82815 5.13281,2.8125 1.61716,0.98439 3.03513,2.07424 4.25391,3.26953 1.21872,1.19533 2.18552,2.51955 2.90039,3.97265 0.71481,1.45314 1.07223,3.1172 1.07227,4.99219 -4e-5,2.48439 -0.48636,4.5879 -1.45899,6.31055 -0.97269,1.72266 -2.28518,3.12305 -3.9375,4.20117 -1.65237,1.07813 -3.55666,1.85742 -5.71289,2.33789 -2.15627,0.48047 -4.4297,0.7207 -6.82031,0.7207 -0.79689,0 -1.78127,-0.0644 -2.95313,-0.19336 -1.17188,-0.1289 -2.36719,-0.3164 -3.58593,-0.5625 -1.21876,-0.24609 -2.37306,-0.55078 -3.46289,-0.91406 -1.08985,-0.36328 -1.9629,-0.76758 -2.61914,-1.21289 z" />
    <path
       inkscape:connector-curvature="0"
       id="path2996"
       style="font-size:72px;font-style:normal;font-variant:normal;font-weight:normal;font-stretch:normal;line-height:125%;letter-spacing:0px;word-spacing:0px;fill:#359ab2;fill-opacity:1;stroke:none;font-family:Segoe UI;-inkscape-font-specification:Segoe UI"
       d="m 150.77539,980.77234 0,-6.96094 c 0.79687,0.70314 1.75194,1.33595 2.86523,1.89844 1.11327,0.56251 2.28515,1.03712 3.51563,1.42383 1.23045,0.38672 2.46678,0.68555 3.70898,0.89648 1.24217,0.21094 2.39061,0.31641 3.44531,0.31641 3.63279,0 6.34568,-0.67382 8.13867,-2.02149 1.79295,-1.34764 2.68943,-3.2871 2.68946,-5.81835 -3e-5,-1.35937 -0.29886,-2.54296 -0.89649,-3.55079 -0.59768,-1.00779 -1.42385,-1.92771 -2.47851,-2.75976 -1.05471,-0.83201 -2.30276,-1.62889 -3.74414,-2.39063 -1.44143,-0.76169 -2.99416,-1.56443 -4.65821,-2.4082 -1.75782,-0.8906 -3.39845,-1.79294 -4.92187,-2.70703 -1.52345,-0.91404 -2.84767,-1.92185 -3.97266,-3.02344 -1.125,-1.10153 -2.00977,-2.34958 -2.65429,-3.74414 -0.64454,-1.3945 -0.96681,-3.02926 -0.9668,-4.9043 -1e-5,-2.29683 0.5039,-4.29488 1.51172,-5.99414 1.0078,-1.69917 2.33202,-3.09956 3.97265,-4.20117 1.64062,-1.10151 3.50976,-1.92182 5.60743,-2.46094 2.09763,-0.53901 4.2363,-0.80854 6.41601,-0.80859 4.96872,5e-5 8.58981,0.59771 10.86328,1.79297 l 0,6.64453 c -2.97659,-2.06245 -6.7969,-3.0937 -11.46094,-3.09375 -1.28908,5e-5 -2.57814,0.13481 -3.86718,0.4043 -1.28908,0.26957 -2.43752,0.70903 -3.44532,1.31836 -1.00782,0.60941 -1.82813,1.39457 -2.46093,2.35547 -0.63283,0.96097 -0.94923,2.13285 -0.94922,3.51562 -1e-5,1.2891 0.24022,2.40238 0.7207,3.33984 0.48046,0.93754 1.18944,1.79301 2.12695,2.56641 0.93749,0.77347 2.08007,1.52347 3.42774,2.25 1.34764,0.72659 2.90037,1.52347 4.6582,2.39063 1.80467,0.89065 3.5156,1.82815 5.13281,2.8125 1.61716,0.98439 3.03513,2.07424 4.25391,3.26953 1.21872,1.19533 2.18552,2.51955 2.90039,3.97265 0.71481,1.45314 1.07223,3.1172 1.07227,4.99219 -4e-5,2.48439 -0.48636,4.5879 -1.45899,6.31055 -0.97269,1.72266 -2.28518,3.12305 -3.9375,4.20117 -1.65237,1.07813 -3.55666,1.85742 -5.71289,2.33789 -2.15627,0.48047 -4.4297,0.7207 -6.82031,0.7207 -0.79689,0 -1.78127,-0.0644 -2.95313,-0.19336 -1.17188,-0.1289 -2.36719,-0.3164 -3.58593,-0.5625 -1.21876,-0.24609 -2.37306,-0.55078 -3.46289,-0.91406 -1.08985,-0.36328 -1.9629,-0.76758 -2.61914,-1.21289 z" />
    <path
       style="fill:none;stroke:#359ab2;stroke-width:5.99899999999999970;stroke-linecap:butt;stroke-linejoin:miter;stroke-miterlimit:4;stroke-opacity:1;stroke-dasharray:none"
       d="m 135,983.27298 0,-49.8216"
       id="path3000"
       inkscape:connector-curvature="0" />
    <path
       style="fill:none;stroke:#00ff00;stroke-width:5.99900007;stroke-linecap:butt;stroke-linejoin:miter;stroke-miterlimit:4;stroke-opacity:1;stroke-dasharray:none"
       d="m 114,941.36218 13,-14 9,10 28,-22"
       id="path3770"
       inkscape:connector-curvature="0"
       sodipodi:nodetypes="cccc" />
    <path
       style="fill:none;stroke:#00ff00;stroke-width:5.99900007;stroke-linecap:butt;stroke-linejoin:miter;stroke-miterlimit:4;stroke-opacity:1;stroke-dasharray:none"
       d="m 149,62 15,1 -0.78321,11.98438"
       id="path3782"
       inkscape:connector-curvature="0"
       transform="translate(0,852.36218)"
       sodipodi:nodetypes="ccc" />
  </g>
</svg>
